<svg width="778" height="466" viewBox="0 0 778 466" fill="none" xmlns="http://www.w3.org/2000/svg">
<path d="M389.959 14.43C389.959 19.2347 382.76 19.2347 382.76 14.43C382.76 9.61917 389.959 9.61917 389.959 14.43Z" fill="white"/>
<path d="M18.1981 354.824H754.865V358.007H18.1981V354.824Z" fill="white"/>
<path d="M129.591 1.71613C119.647 1.71613 111.59 9.78961 111.59 19.7528L111.591 353.519H110.514V19.7745C110.514 9.20754 119.052 0.646722 129.591 0.646722L643.442 0.640625C653.975 0.640625 662.525 9.2016 662.525 19.7684V37.7102H661.448V19.7528C661.448 9.78914 653.391 1.71613 643.441 1.71613H129.591Z" fill="white"/>
<path fill-rule="evenodd" clip-rule="evenodd" d="M660.384 37.7102V19.7481C660.36 10.3764 652.808 2.8041 643.455 2.79161L643.449 2.80097H129.599C120.258 2.81926 112.693 10.3862 112.682 19.7637V353.508H660.384V327.614H639.484V341.624H133.563V23.6603H639.484V37.7102H660.384ZM426.059 12.7337H418.623V16.1239H426.059V12.7337ZM365.036 9.13011C363.052 9.13011 361.44 10.746 361.44 12.7398V16.1239C361.44 18.1177 363.052 19.7336 365.036 19.7336H406.105C408.095 19.7336 409.702 18.1177 409.702 16.1239V12.7398C409.702 10.746 408.095 9.13011 406.105 9.13011H365.036ZM351.836 12.7337H344.4V16.1239H351.836V12.7337Z" fill="white"/>
<path d="M661.448 327.614H662.525V353.513H661.448V327.614Z" fill="white"/>
<path d="M47.4852 394.191C26.6804 394.191 18.3912 382.941 18.3912 382.941H755.058C755.058 382.941 746.782 394.191 725.97 394.191H47.4852Z" fill="white"/>
<path d="M18.1981 359.335V381.61H754.865V359.335H18.1981ZM55.8353 375.444C53.4681 375.444 51.5451 373.517 51.5451 371.145C51.5451 368.774 53.4681 366.847 55.8353 366.847C58.1963 366.847 60.1254 368.774 60.1254 371.145C60.1254 373.517 58.2024 375.444 55.8353 375.444ZM70.8415 375.444C68.4744 375.444 66.5514 373.517 66.5514 371.145C66.5514 368.774 68.4744 366.847 70.8415 366.847C73.2026 366.847 75.1256 368.774 75.1256 371.145C75.1256 373.517 73.2026 375.444 70.8415 375.444ZM85.8417 375.444C83.4746 375.444 81.5516 373.517 81.5516 371.145C81.5516 368.774 83.4746 366.847 85.8417 366.847C88.2028 366.847 90.1318 368.774 90.1318 371.145C90.1318 373.517 88.2088 375.444 85.8417 375.444ZM719.832 370.981C719.832 371.993 718.865 372.822 717.672 372.822H493.375C492.177 372.822 491.215 371.993 491.215 370.981V369.609C491.215 368.591 492.183 367.767 493.375 367.767H717.672C718.865 367.767 719.832 368.591 719.832 369.609V370.981Z" fill="white"/>
<path d="M299.651 248.542H285.891L268.69 110.939V248.542H258.37V62.7782H272.13L289.331 200.381V62.7782H299.651V248.542Z" fill="white"/>
<path d="M372.305 231.341C372.305 232.201 372.198 233.778 371.983 236.071C371.768 238.293 371.015 240.586 369.725 242.951C368.435 245.316 366.392 247.395 363.597 249.187C360.802 251.05 356.825 251.982 351.665 251.982C346.505 251.982 342.527 251.05 339.732 249.187C336.937 247.395 334.894 245.316 333.604 242.951C332.314 240.586 331.562 238.293 331.347 236.071C331.132 233.778 331.024 232.201 331.024 231.341V79.9785C331.024 79.4052 331.06 78.5451 331.132 77.3985C331.204 76.2518 331.419 74.9976 331.777 73.6359C332.135 72.2025 332.744 70.7692 333.604 69.3358C334.464 67.8308 335.647 66.4691 337.152 65.2507C338.657 64.0324 340.592 63.0649 342.957 62.3482C345.322 61.5598 348.225 61.1657 351.665 61.1657C355.105 61.1657 358.007 61.5598 360.372 62.3482C362.737 63.0649 364.672 64.0324 366.177 65.2507C367.682 66.4691 368.865 67.8308 369.725 69.3358C370.585 70.7692 371.194 72.2025 371.553 73.6359C371.911 74.9976 372.126 76.2518 372.198 77.3985C372.269 78.5451 372.305 79.4052 372.305 79.9785V231.341ZM344.785 231.341C344.785 232.201 344.82 233.24 344.892 234.459C344.964 235.605 345.215 236.716 345.645 237.791C346.075 238.866 346.755 239.798 347.687 240.586C348.619 241.303 349.945 241.661 351.665 241.661C353.385 241.661 354.711 241.303 355.642 240.586C356.574 239.798 357.255 238.866 357.685 237.791C358.115 236.716 358.366 235.605 358.437 234.459C358.509 233.24 358.545 232.201 358.545 231.341V79.9785C358.545 79.1185 358.509 78.1868 358.437 77.1835C358.366 76.1801 358.115 75.2843 357.685 74.4959C357.255 73.6359 356.574 72.9192 355.642 72.3459C354.711 71.7725 353.385 71.4859 351.665 71.4859C349.945 71.4859 348.619 71.7725 347.687 72.3459C346.755 72.9192 346.075 73.6359 345.645 74.4959C345.215 75.2843 344.964 76.1801 344.892 77.1835C344.82 78.1868 344.785 79.1185 344.785 79.9785V231.341Z" fill="white"/>
<path d="M444.959 248.542H431.199L413.999 110.939V248.542H403.678V62.7782H417.439L434.639 200.381V62.7782H444.959V248.542Z" fill="white"/>
<path d="M514.173 248.542H500.413L498.693 203.821H488.48L486.653 248.542H472.892L483.213 62.7782H503.853L514.173 248.542ZM493.533 69.6583L490.093 152.22L488.48 193.501H498.693L493.533 69.6583Z" fill="white"/>
<path d="M579.947 62.7782H593.707L597.148 248.542H583.387V121.259L573.067 238.221H566.187L555.867 121.259V248.542H542.107L545.547 62.7782H559.307L569.627 190.06L579.947 62.7782Z" fill="white"/>
<path d="M659.481 73.0984H642.281V145.34H656.041V155.66H642.281V238.221H659.481V248.542H628.521V62.7782H659.481V73.0984Z" fill="white"/>
<path d="M262.324 274.576H251.311V268.54H280.111V274.576H269.099V310.921H262.324V274.576Z" fill="white"/>
<path d="M292.956 268.54H318.642V274.576H299.666V286.745H318.321V292.62H299.666V304.885H318.642V310.921H292.956V268.54Z" fill="white"/>
<path d="M355.072 305.014C357.512 305.014 359.642 304.682 361.461 304.018C363.302 303.333 364.64 302.659 365.475 301.996L368.364 307.775C367.401 308.631 365.721 309.498 363.323 310.376C360.926 311.253 358.058 311.692 354.719 311.692C351.594 311.692 348.682 311.135 345.985 310.022C343.288 308.909 340.923 307.368 338.89 305.399C336.856 303.408 335.272 301.086 334.138 298.432C333.003 295.777 332.436 292.898 332.436 289.795C332.436 286.691 333.003 283.801 334.138 281.126C335.272 278.45 336.846 276.117 338.858 274.126C340.891 272.136 343.256 270.584 345.953 269.471C348.672 268.336 351.594 267.769 354.719 267.769C358.058 267.769 360.926 268.208 363.323 269.086C365.721 269.963 367.401 270.83 368.364 271.686L365.475 277.466C364.64 276.802 363.302 276.138 361.461 275.475C359.642 274.79 357.512 274.448 355.072 274.448C352.76 274.448 350.662 274.833 348.779 275.603C346.895 276.374 345.279 277.455 343.931 278.846C342.582 280.238 341.544 281.864 340.816 283.726C340.088 285.567 339.725 287.558 339.725 289.698C339.725 291.86 340.088 293.872 340.816 295.735C341.544 297.597 342.582 299.224 343.931 300.615C345.279 302.006 346.895 303.087 348.779 303.858C350.662 304.628 352.76 305.014 355.072 305.014Z" fill="white"/>
<path d="M388.126 274.865L388.575 274.929V310.921H381.833V268.54H391.24L411.725 304.5L411.307 304.596V268.54H418.018V310.921H408.578L388.126 274.865Z" fill="white"/>
<path d="M438.494 289.698C438.494 292.609 439.104 295.253 440.325 297.629C441.545 299.983 443.225 301.856 445.365 303.248C447.506 304.618 449.967 305.303 452.75 305.303C455.576 305.303 458.048 304.618 460.167 303.248C462.307 301.856 463.977 299.983 465.176 297.629C466.396 295.253 467.006 292.609 467.006 289.698C467.006 286.787 466.396 284.155 465.176 281.8C463.977 279.446 462.307 277.583 460.167 276.213C458.048 274.843 455.576 274.159 452.75 274.159C449.967 274.159 447.506 274.843 445.365 276.213C443.225 277.583 441.545 279.446 440.325 281.8C439.104 284.155 438.494 286.787 438.494 289.698ZM431.463 289.698C431.463 286.616 431.998 283.748 433.068 281.094C434.16 278.418 435.658 276.085 437.563 274.094C439.49 272.104 441.748 270.552 444.338 269.439C446.928 268.326 449.732 267.769 452.75 267.769C455.811 267.769 458.626 268.326 461.194 269.439C463.784 270.552 466.042 272.104 467.969 274.094C469.895 276.085 471.383 278.418 472.432 281.094C473.481 283.748 474.005 286.616 474.005 289.698C474.005 292.802 473.481 295.692 472.432 298.367C471.404 301.022 469.938 303.355 468.033 305.367C466.128 307.357 463.881 308.909 461.291 310.022C458.701 311.135 455.854 311.692 452.75 311.692C449.625 311.692 446.757 311.135 444.145 310.022C441.555 308.909 439.308 307.357 437.403 305.367C435.519 303.355 434.053 301.022 433.004 298.367C431.977 295.692 431.463 292.802 431.463 289.698Z" fill="white"/>
<path d="M487.266 268.54H494.041V304.885H510.319V310.921H487.266V268.54Z" fill="white"/>
<path d="M528.5 289.698C528.5 292.609 529.11 295.253 530.33 297.629C531.55 299.983 533.231 301.856 535.371 303.248C537.512 304.618 539.973 305.303 542.756 305.303C545.581 305.303 548.053 304.618 550.172 303.248C552.313 301.856 553.983 299.983 555.181 297.629C556.401 295.253 557.011 292.609 557.011 289.698C557.011 286.787 556.401 284.155 555.181 281.8C553.983 279.446 552.313 277.583 550.172 276.213C548.053 274.843 545.581 274.159 542.756 274.159C539.973 274.159 537.512 274.843 535.371 276.213C533.231 277.583 531.55 279.446 530.33 281.8C529.11 284.155 528.5 286.787 528.5 289.698ZM521.469 289.698C521.469 286.616 522.004 283.748 523.074 281.094C524.166 278.418 525.664 276.085 527.569 274.094C529.495 272.104 531.754 270.552 534.344 269.439C536.934 268.326 539.738 267.769 542.756 267.769C545.817 267.769 548.631 268.326 551.2 269.439C553.79 270.552 556.048 272.104 557.975 274.094C559.901 276.085 561.389 278.418 562.437 281.094C563.486 283.748 564.011 286.616 564.011 289.698C564.011 292.802 563.486 295.692 562.437 298.367C561.41 301.022 559.944 303.355 558.039 305.367C556.134 307.357 553.886 308.909 551.296 310.022C548.706 311.135 545.859 311.692 542.756 311.692C539.631 311.692 536.762 311.135 534.151 310.022C531.561 308.909 529.313 307.357 527.408 305.367C525.525 303.355 524.059 301.022 523.01 298.367C521.982 295.692 521.469 292.802 521.469 289.698Z" fill="white"/>
<path d="M596.119 287.708H617.567V290.116C617.567 293.112 617.053 295.917 616.025 298.528C614.998 301.118 613.542 303.408 611.659 305.399C609.797 307.368 607.592 308.909 605.045 310.022C602.498 311.135 599.683 311.692 596.601 311.692C593.475 311.692 590.607 311.125 587.996 309.99C585.406 308.834 583.158 307.25 581.253 305.238C579.37 303.226 577.903 300.893 576.855 298.239C575.827 295.585 575.313 292.738 575.313 289.698C575.313 286.68 575.827 283.844 576.855 281.19C577.903 278.536 579.37 276.203 581.253 274.191C583.158 272.179 585.406 270.605 587.996 269.471C590.607 268.336 593.475 267.769 596.601 267.769C598.891 267.769 600.946 268.026 602.765 268.54C604.606 269.032 606.243 269.706 607.678 270.562C609.112 271.419 610.364 272.393 611.434 273.484C612.504 274.555 613.414 275.657 614.163 276.791L607.934 279.938C606.779 278.29 605.27 276.92 603.407 275.828C601.545 274.715 599.276 274.159 596.601 274.159C594.524 274.159 592.609 274.565 590.853 275.379C589.12 276.192 587.611 277.316 586.326 278.75C585.063 280.184 584.079 281.843 583.372 283.726C582.687 285.589 582.345 287.579 582.345 289.698C582.345 291.818 582.687 293.819 583.372 295.702C584.079 297.586 585.063 299.245 586.326 300.679C587.611 302.113 589.12 303.248 590.853 304.082C592.609 304.896 594.524 305.303 596.601 305.303C598.548 305.303 600.314 304.992 601.898 304.371C603.504 303.729 604.895 302.852 606.072 301.739C607.249 300.626 608.181 299.331 608.865 297.854C609.55 296.355 609.946 294.75 610.053 293.038H596.119V287.708Z" fill="white"/>
<path d="M641.463 295.67L627.079 268.54H635.266L644.834 287.868L654.37 268.54H662.525L648.205 295.67V310.921H641.463V295.67Z" fill="white"/>
<path d="M11.983 426.328H16.7838L27.9037 455.803H22.902L20.4681 449.059H8.32107L5.86487 455.803H0.84082L11.983 426.328ZM9.83945 444.884H18.9497L14.4169 432.045H14.3499L9.83945 444.884Z" fill="white"/>
<path d="M40.4963 425.792C42.223 425.792 43.7191 425.993 44.9844 426.395C46.2646 426.782 47.2769 427.199 48.0212 427.646C48.7655 428.077 49.212 428.36 49.3609 428.494L47.0163 432.313C46.7931 432.119 46.3911 431.851 45.8106 431.509C45.2449 431.151 44.5453 430.831 43.7116 430.549C42.8929 430.266 41.9774 430.124 40.9652 430.124C39.4468 430.124 38.241 430.422 37.3478 431.017C36.4547 431.598 36.0081 432.447 36.0081 433.563C36.0081 434.307 36.2463 434.962 36.7226 435.528C37.199 436.094 37.8763 436.622 38.7546 437.113C39.6477 437.605 40.7121 438.103 41.9476 438.609C42.9897 439.041 44.0019 439.532 44.9844 440.083C45.9818 440.634 46.8749 441.281 47.6639 442.026C48.4529 442.77 49.0781 443.633 49.5395 444.616C50.0159 445.598 50.2541 446.73 50.2541 448.01C50.2541 449.35 49.9787 450.541 49.4279 451.583C48.8771 452.61 48.1179 453.481 47.1503 454.195C46.1827 454.895 45.0663 455.431 43.801 455.803C42.5505 456.16 41.2108 456.339 39.7817 456.339C37.9061 456.339 36.2165 456.115 34.713 455.669C33.2244 455.207 32.0186 454.731 31.0957 454.24C30.1728 453.734 29.6369 453.406 29.488 453.257L31.9665 449.26C32.1452 449.409 32.4727 449.632 32.949 449.93C33.4403 450.213 34.0431 450.518 34.7577 450.846C35.4722 451.158 36.2612 451.426 37.1246 451.65C38.0028 451.858 38.9109 451.962 39.8487 451.962C41.6499 451.962 43.012 451.575 43.9349 450.801C44.8579 450.012 45.3193 449 45.3193 447.764C45.3193 446.826 45.0216 446.015 44.4262 445.33C43.8456 444.631 43.0418 443.998 42.0146 443.432C41.0024 442.867 39.8487 442.309 38.5536 441.758C37.2288 441.177 36.0007 440.522 34.8693 439.793C33.7529 439.063 32.8523 438.178 32.1675 437.136C31.4827 436.079 31.1404 434.799 31.1404 433.295C31.1404 431.792 31.5646 430.482 32.4131 429.365C33.2765 428.234 34.4153 427.355 35.8295 426.73C37.2436 426.105 38.7992 425.792 40.4963 425.792Z" fill="white"/>
<path d="M64.5262 425.792C66.253 425.792 67.749 425.993 69.0143 426.395C70.2945 426.782 71.3068 427.199 72.0511 427.646C72.7954 428.077 73.242 428.36 73.3908 428.494L71.0463 432.313C70.823 432.119 70.4211 431.851 69.8405 431.509C69.2748 431.151 68.5752 430.831 67.7416 430.549C66.9229 430.266 66.0074 430.124 64.9951 430.124C63.4767 430.124 62.271 430.422 61.3778 431.017C60.4846 431.598 60.038 432.447 60.038 433.563C60.038 434.307 60.2762 434.962 60.7526 435.528C61.2289 436.094 61.9062 436.622 62.7845 437.113C63.6777 437.605 64.742 438.103 65.9776 438.609C67.0196 439.041 68.0319 439.532 69.0143 440.083C70.0117 440.634 70.9049 441.281 71.6938 442.026C72.4828 442.77 73.108 443.633 73.5695 444.616C74.0458 445.598 74.284 446.73 74.284 448.01C74.284 449.35 74.0086 450.541 73.4578 451.583C72.9071 452.61 72.1479 453.481 71.1803 454.195C70.2127 454.895 69.0962 455.431 67.8309 455.803C66.5805 456.16 65.2407 456.339 63.8117 456.339C61.936 456.339 60.2465 456.115 58.743 455.669C57.2544 455.207 56.0486 454.731 55.1256 454.24C54.2027 453.734 53.6668 453.406 53.5179 453.257L55.9965 449.26C56.1751 449.409 56.5026 449.632 56.979 449.93C57.4702 450.213 58.0731 450.518 58.7876 450.846C59.5021 451.158 60.2911 451.426 61.1545 451.65C62.0328 451.858 62.9408 451.962 63.8787 451.962C65.6799 451.962 67.0419 451.575 67.9649 450.801C68.8878 450.012 69.3493 449 69.3493 447.764C69.3493 446.826 69.0516 446.015 68.4561 445.33C67.8756 444.631 67.0717 443.998 66.0446 443.432C65.0323 442.867 63.8787 442.309 62.5836 441.758C61.2587 441.177 60.0306 440.522 58.8993 439.793C57.7828 439.063 56.8822 438.178 56.1974 437.136C55.5127 436.079 55.1703 434.799 55.1703 433.295C55.1703 431.792 55.5946 430.482 56.4431 429.365C57.3064 428.234 58.4452 427.355 59.8594 426.73C61.2736 426.105 62.8292 425.792 64.5262 425.792Z" fill="white"/>
<path d="M79.2002 426.328H83.8894V455.803H79.2002V426.328Z" fill="white"/>
<path d="M99.5026 425.792C101.229 425.792 102.725 425.993 103.991 426.395C105.271 426.782 106.283 427.199 107.028 427.646C107.772 428.077 108.218 428.36 108.367 428.494L106.023 432.313C105.799 432.119 105.398 431.851 104.817 431.509C104.251 431.151 103.552 430.831 102.718 430.549C101.899 430.266 100.984 430.124 99.9715 430.124C98.4532 430.124 97.2474 430.422 96.3542 431.017C95.4611 431.598 95.0145 432.447 95.0145 433.563C95.0145 434.307 95.2527 434.962 95.729 435.528C96.2054 436.094 96.8827 436.622 97.761 437.113C98.6541 437.605 99.7185 438.103 100.954 438.609C101.996 439.041 103.008 439.532 103.991 440.083C104.988 440.634 105.881 441.281 106.67 442.026C107.459 442.77 108.084 443.633 108.546 444.616C109.022 445.598 109.26 446.73 109.26 448.01C109.26 449.35 108.985 450.541 108.434 451.583C107.883 452.61 107.124 453.481 106.157 454.195C105.189 454.895 104.073 455.431 102.807 455.803C101.557 456.16 100.217 456.339 98.7881 456.339C96.9125 456.339 95.2229 456.115 93.7194 455.669C92.2308 455.207 91.025 454.731 90.1021 454.24C89.1791 453.734 88.6432 453.406 88.4944 453.257L90.9729 449.26C91.1516 449.409 91.479 449.632 91.9554 449.93C92.4466 450.213 93.0495 450.518 93.7641 450.846C94.4786 451.158 95.2675 451.426 96.1309 451.65C97.0092 451.858 97.9173 451.962 98.8551 451.962C100.656 451.962 102.018 451.575 102.941 450.801C103.864 450.012 104.326 449 104.326 447.764C104.326 446.826 104.028 446.015 103.433 445.33C102.852 444.631 102.048 443.998 101.021 443.432C100.009 442.867 98.8551 442.309 97.56 441.758C96.2351 441.177 95.007 440.522 93.8757 439.793C92.7592 439.063 91.8586 438.178 91.1739 437.136C90.4891 436.079 90.1467 434.799 90.1467 433.295C90.1467 431.792 90.571 430.482 91.4195 429.365C92.2829 428.234 93.4217 427.355 94.8358 426.73C96.25 426.105 97.8056 425.792 99.5026 425.792Z" fill="white"/>
<path d="M119.759 430.526H112.1V426.328H132.129V430.526H124.47V455.803H119.759V430.526Z" fill="white"/>
<path d="M136.15 426.328H154.013V430.526H140.816V438.989H153.79V443.075H140.816V451.605H154.013V455.803H136.15V426.328ZM139.7 424.497L137.78 421.952L144.836 416.794L151.892 421.952L149.971 424.52L144.836 420.768L139.7 424.497Z" fill="white"/>
<path d="M164.12 430.727L164.432 430.772V455.803H159.743V426.328H166.286L180.532 451.337L180.242 451.404V426.328H184.908V455.803H178.344L164.12 430.727Z" fill="white"/>
<path d="M205.356 451.694C207.053 451.694 208.535 451.463 209.8 451.002C211.08 450.526 212.011 450.057 212.591 449.595L214.601 453.615C213.931 454.21 212.762 454.813 211.095 455.423C209.428 456.034 207.433 456.339 205.111 456.339C202.938 456.339 200.913 455.952 199.037 455.178C197.162 454.403 195.517 453.332 194.103 451.962C192.688 450.578 191.587 448.963 190.798 447.117C190.009 445.271 189.614 443.269 189.614 441.11C189.614 438.952 190.009 436.942 190.798 435.081C191.587 433.221 192.681 431.598 194.08 430.214C195.494 428.829 197.139 427.75 199.015 426.976C200.906 426.187 202.938 425.792 205.111 425.792C207.433 425.792 209.428 426.098 211.095 426.708C212.762 427.318 213.931 427.921 214.601 428.517L212.591 432.536C212.011 432.074 211.08 431.613 209.8 431.151C208.535 430.675 207.053 430.437 205.356 430.437C203.749 430.437 202.29 430.705 200.98 431.241C199.67 431.777 198.546 432.528 197.608 433.496C196.67 434.464 195.949 435.595 195.442 436.89C194.936 438.17 194.683 439.555 194.683 441.043C194.683 442.547 194.936 443.946 195.442 445.241C195.949 446.536 196.67 447.668 197.608 448.635C198.546 449.603 199.67 450.354 200.98 450.89C202.29 451.426 203.749 451.694 205.356 451.694Z" fill="white"/>
<path d="M219.368 426.328H224.057V455.803H219.368V426.328Z" fill="white"/>
<path d="M239.112 426.328H243.913L255.032 455.803H250.031L247.597 449.059H235.45L232.994 455.803H227.97L239.112 426.328ZM236.968 444.884H246.078L241.546 432.045H241.479L236.968 444.884Z" fill="white"/>
<path d="M275.19 430.526H267.532V426.328H287.561V430.526H279.902V455.803H275.19V430.526Z" fill="white"/>
<path d="M291.581 426.328H309.444V430.526H296.248V438.989H309.221V443.075H296.248V451.605H309.444V455.803H291.581V426.328ZM298.458 425.078L296.873 422.957L303.84 417.151L306.341 420.322L298.458 425.078Z" fill="white"/>
<path d="M329.867 451.694C331.564 451.694 333.046 451.463 334.311 451.002C335.591 450.526 336.521 450.057 337.102 449.595L339.112 453.615C338.442 454.21 337.273 454.813 335.606 455.423C333.939 456.034 331.944 456.339 329.622 456.339C327.448 456.339 325.424 455.952 323.548 455.178C321.673 454.403 320.028 453.332 318.613 451.962C317.199 450.578 316.098 448.963 315.309 447.117C314.52 445.271 314.125 443.269 314.125 441.11C314.125 438.952 314.52 436.942 315.309 435.081C316.098 433.221 317.192 431.598 318.591 430.214C320.005 428.829 321.65 427.75 323.526 426.976C325.416 426.187 327.448 425.792 329.622 425.792C331.944 425.792 333.939 426.098 335.606 426.708C337.273 427.318 338.442 427.921 339.112 428.517L337.102 432.536C336.521 432.074 335.591 431.613 334.311 431.151C333.046 430.675 331.564 430.437 329.867 430.437C328.26 430.437 326.801 430.705 325.491 431.241C324.181 431.777 323.057 432.528 322.119 433.496C321.181 434.464 320.459 435.595 319.953 436.89C319.447 438.17 319.194 439.555 319.194 441.043C319.194 442.547 319.447 443.946 319.953 445.241C320.459 446.536 321.181 447.668 322.119 448.635C323.057 449.603 324.181 450.354 325.491 450.89C326.801 451.426 328.26 451.694 329.867 451.694Z" fill="white"/>
<path d="M347.942 430.727L348.255 430.772V455.803H343.566V426.328H350.108L364.354 451.337L364.064 451.404V426.328H368.731V455.803H362.166L347.942 430.727Z" fill="white"/>
<path d="M374.799 426.328H379.488V455.803H374.799V426.328Z" fill="white"/>
<path d="M400.126 451.694C401.823 451.694 403.304 451.463 404.569 451.002C405.849 450.526 406.78 450.057 407.36 449.595L409.37 453.615C408.7 454.21 407.531 454.813 405.864 455.423C404.197 456.034 402.202 456.339 399.88 456.339C397.707 456.339 395.682 455.952 393.806 455.178C391.931 454.403 390.286 453.332 388.872 451.962C387.457 450.578 386.356 448.963 385.567 447.117C384.778 445.271 384.384 443.269 384.384 441.11C384.384 438.952 384.778 436.942 385.567 435.081C386.356 433.221 387.45 431.598 388.849 430.214C390.263 428.829 391.908 427.75 393.784 426.976C395.675 426.187 397.707 425.792 399.88 425.792C402.202 425.792 404.197 426.098 405.864 426.708C407.531 427.318 408.7 427.921 409.37 428.517L407.36 432.536C406.78 432.074 405.849 431.613 404.569 431.151C403.304 430.675 401.823 430.437 400.126 430.437C398.518 430.437 397.059 430.705 395.749 431.241C394.439 431.777 393.315 432.528 392.377 433.496C391.44 434.464 390.718 435.595 390.211 436.89C389.705 438.17 389.452 439.555 389.452 441.043C389.452 442.547 389.705 443.946 390.211 445.241C390.718 446.536 391.44 447.668 392.377 448.635C393.315 449.603 394.439 450.354 395.749 450.89C397.059 451.426 398.518 451.694 400.126 451.694Z" fill="white"/>
<path d="M422.934 426.328H427.735L438.855 455.803H433.853L431.419 449.059H419.272L416.816 455.803H411.792L422.934 426.328ZM420.791 444.884H429.901L425.368 432.045H425.301L420.791 444.884Z" fill="white"/>
<path d="M452.024 448.256C452.024 447.08 452.24 446.045 452.671 445.152C453.118 444.244 453.691 443.462 454.391 442.807C455.09 442.137 455.82 441.579 456.579 441.133C457.353 440.671 458.068 440.314 458.723 440.061C459.378 439.793 459.884 439.607 460.241 439.503C459.958 439.309 459.608 438.996 459.192 438.565C458.775 438.133 458.365 437.612 457.963 437.002C457.562 436.376 457.227 435.692 456.959 434.947C456.691 434.203 456.557 433.429 456.557 432.625C456.557 431.375 456.899 430.236 457.584 429.209C458.269 428.182 459.236 427.355 460.487 426.73C461.752 426.105 463.255 425.792 464.997 425.792C466.709 425.792 468.153 426.098 469.329 426.708C470.52 427.303 471.42 428.122 472.031 429.164C472.641 430.191 472.946 431.367 472.946 432.692C472.946 433.823 472.693 434.828 472.187 435.707C471.696 436.57 471.086 437.322 470.356 437.962C469.627 438.587 468.905 439.108 468.19 439.525C467.476 439.942 466.903 440.254 466.471 440.463L472.142 446.603C472.5 446.261 472.998 445.71 473.638 444.951C474.279 444.177 474.926 443.276 475.581 442.249L478.73 445.018C478.521 445.375 478.216 445.837 477.814 446.402C477.412 446.953 476.973 447.511 476.497 448.077C476.02 448.628 475.574 449.089 475.157 449.461L481.163 455.803H475.202L471.674 452.029C470.899 452.729 470.006 453.414 468.994 454.083C467.982 454.738 466.828 455.282 465.533 455.713C464.253 456.13 462.816 456.339 461.224 456.339C459.527 456.339 457.978 456.019 456.579 455.379C455.18 454.724 454.071 453.793 453.252 452.587C452.433 451.382 452.024 449.938 452.024 448.256ZM462.608 442.361C462.385 442.435 462.057 442.569 461.625 442.763C461.209 442.941 460.747 443.179 460.241 443.477C459.735 443.76 459.259 444.117 458.812 444.549C458.365 444.966 457.993 445.45 457.695 446C457.398 446.551 457.249 447.176 457.249 447.876C457.249 448.784 457.465 449.543 457.896 450.154C458.328 450.764 458.901 451.218 459.616 451.516C460.345 451.813 461.134 451.962 461.983 451.962C462.906 451.962 463.799 451.798 464.662 451.471C465.54 451.143 466.329 450.749 467.029 450.287C467.744 449.811 468.309 449.35 468.726 448.903L462.608 442.361ZM464.93 429.477C464.126 429.477 463.442 429.633 462.876 429.946C462.31 430.258 461.878 430.66 461.581 431.151C461.283 431.643 461.134 432.149 461.134 432.67C461.134 433.221 461.268 433.786 461.536 434.367C461.819 434.947 462.139 435.491 462.496 435.997C462.868 436.503 463.203 436.927 463.501 437.27C463.814 437.597 463.992 437.783 464.037 437.828C464.305 437.753 464.692 437.59 465.198 437.337C465.704 437.084 466.218 436.749 466.739 436.332C467.275 435.9 467.729 435.387 468.101 434.791C468.488 434.181 468.681 433.474 468.681 432.67C468.681 431.762 468.339 431.003 467.654 430.392C466.97 429.782 466.061 429.477 464.93 429.477Z" fill="white"/>
<path d="M522.902 426.328V455.803H518.213V435.729L518.436 431.955L517.543 436.198L511.09 453.927H506.467L500.037 436.198L499.144 431.955L499.367 435.729V455.803H494.678V426.328H501.086L508.455 448.389L508.79 450.154L509.102 448.389L516.516 426.328H522.902Z" fill="white"/>
<path d="M537.982 426.328H542.782L553.902 455.803H548.9L546.467 449.059H534.32L531.863 455.803H526.839L537.982 426.328ZM535.838 444.884H544.948L540.415 432.045H540.348L535.838 444.884Z" fill="white"/>
<path d="M561.203 430.727L561.515 430.772V455.803H556.826V426.328H563.369L577.615 451.337L577.324 451.404V426.328H581.991V455.803H575.426L561.203 430.727Z" fill="white"/>
<path d="M605.744 426.328H610.433V444.571C610.433 446.998 609.949 449.097 608.982 450.868C608.029 452.625 606.697 453.979 604.985 454.932C603.273 455.87 601.278 456.339 599.001 456.339C596.738 456.339 594.743 455.87 593.016 454.932C591.29 453.979 589.943 452.625 588.975 450.868C588.007 449.097 587.523 446.998 587.523 444.571V426.328H592.213V444.326C592.213 445.933 592.503 447.31 593.083 448.456C593.679 449.603 594.483 450.481 595.495 451.091C596.522 451.702 597.691 452.007 599.001 452.007C600.311 452.007 601.472 451.702 602.484 451.091C603.496 450.481 604.293 449.603 604.873 448.456C605.454 447.31 605.744 445.933 605.744 444.326V426.328Z" fill="white"/>
<path d="M621.64 430.526H613.981V426.328H634.011V430.526H626.352V455.803H621.64V430.526Z" fill="white"/>
<path d="M638.031 426.328H655.894V430.526H642.698V438.989H655.671V443.075H642.698V451.605H655.894V455.803H638.031V426.328Z" fill="white"/>
<path d="M666.001 430.727L666.314 430.772V455.803H661.625V426.328H668.167L682.413 451.337L682.123 451.404V426.328H686.79V455.803H680.225L666.001 430.727Z" fill="white"/>
<path d="M707.238 451.694C708.935 451.694 710.416 451.463 711.681 451.002C712.961 450.526 713.892 450.057 714.472 449.595L716.482 453.615C715.812 454.21 714.644 454.813 712.976 455.423C711.309 456.034 709.314 456.339 706.992 456.339C704.819 456.339 702.794 455.952 700.919 455.178C699.043 454.403 697.398 453.332 695.984 451.962C694.57 450.578 693.468 448.963 692.679 447.117C691.89 445.271 691.496 443.269 691.496 441.11C691.496 438.952 691.89 436.942 692.679 435.081C693.468 433.221 694.562 431.598 695.962 430.214C697.376 428.829 699.021 427.75 700.896 426.976C702.787 426.187 704.819 425.792 706.992 425.792C709.314 425.792 711.309 426.098 712.976 426.708C714.644 427.318 715.812 427.921 716.482 428.517L714.472 432.536C713.892 432.074 712.961 431.613 711.681 431.151C710.416 430.675 708.935 430.437 707.238 430.437C705.63 430.437 704.171 430.705 702.861 431.241C701.551 431.777 700.427 432.528 699.49 433.496C698.552 434.464 697.83 435.595 697.324 436.89C696.818 438.17 696.565 439.555 696.565 441.043C696.565 442.547 696.818 443.946 697.324 445.241C697.83 446.536 698.552 447.668 699.49 448.635C700.427 449.603 701.551 450.354 702.861 450.89C704.171 451.426 705.63 451.694 707.238 451.694ZM707.104 465.36C705.913 465.36 704.871 465.174 703.978 464.801C703.099 464.444 702.467 464.094 702.08 463.752L703.844 461.72C704.127 461.988 704.536 462.256 705.072 462.524C705.608 462.807 706.173 462.948 706.769 462.948C707.424 462.948 707.967 462.799 708.399 462.501C708.831 462.204 709.046 461.809 709.046 461.318C709.046 460.767 708.846 460.358 708.444 460.09C708.042 459.837 707.536 459.71 706.925 459.71C706.464 459.71 706.054 459.74 705.697 459.8C705.355 459.874 705.109 459.949 704.96 460.023L704.402 459.666L706.121 454.865L708.042 455.602L707.082 458.192C707.841 458.073 708.607 458.103 709.381 458.281C710.155 458.46 710.803 458.787 711.324 459.264C711.86 459.755 712.128 460.41 712.128 461.229C712.128 462.107 711.882 462.851 711.391 463.462C710.915 464.087 710.289 464.556 709.515 464.868C708.756 465.196 707.952 465.36 707.104 465.36Z" fill="white"/>
<path d="M730.047 426.328H734.847L745.967 455.803H740.966L738.532 449.059H726.385L723.928 455.803H718.904L730.047 426.328ZM727.903 444.884H737.013L732.481 432.045H732.414L727.903 444.884ZM724.777 424.296C724.911 423.552 725.164 422.793 725.536 422.019C725.923 421.23 726.422 420.56 727.032 420.009C727.643 419.458 728.372 419.183 729.221 419.183C730.129 419.183 730.91 419.324 731.565 419.607C732.22 419.89 732.83 420.173 733.396 420.456C733.977 420.724 734.602 420.858 735.272 420.858C735.763 420.858 736.157 420.672 736.455 420.299C736.753 419.912 736.954 419.54 737.058 419.183H740.117C739.968 419.912 739.7 420.672 739.313 421.461C738.926 422.25 738.42 422.919 737.795 423.47C737.185 424.021 736.463 424.296 735.629 424.296C734.706 424.296 733.91 424.155 733.24 423.872C732.585 423.589 731.974 423.314 731.409 423.046C730.858 422.763 730.27 422.622 729.645 422.622C729.183 422.622 728.789 422.815 728.461 423.202C728.149 423.574 727.94 423.939 727.836 424.296H724.777Z" fill="white"/>
<path d="M752.464 441.043C752.464 443.068 752.888 444.906 753.737 446.559C754.585 448.196 755.754 449.499 757.242 450.466C758.731 451.419 760.443 451.895 762.378 451.895C764.343 451.895 766.062 451.419 767.536 450.466C769.025 449.499 770.186 448.196 771.019 446.559C771.868 444.906 772.292 443.068 772.292 441.043C772.292 439.019 771.868 437.188 771.019 435.55C770.186 433.913 769.025 432.618 767.536 431.665C766.062 430.712 764.343 430.236 762.378 430.236C760.443 430.236 758.731 430.712 757.242 431.665C755.754 432.618 754.585 433.913 753.737 435.55C752.888 437.188 752.464 439.019 752.464 441.043ZM747.574 441.043C747.574 438.9 747.946 436.905 748.69 435.059C749.45 433.198 750.492 431.576 751.816 430.191C753.156 428.807 754.727 427.728 756.528 426.954C758.329 426.18 760.279 425.792 762.378 425.792C764.507 425.792 766.464 426.18 768.251 426.954C770.052 427.728 771.622 428.807 772.962 430.191C774.302 431.576 775.336 433.198 776.066 435.059C776.795 436.905 777.16 438.9 777.16 441.043C777.16 443.202 776.795 445.211 776.066 447.072C775.351 448.918 774.332 450.541 773.007 451.94C771.682 453.324 770.119 454.403 768.318 455.178C766.516 455.952 764.537 456.339 762.378 456.339C760.205 456.339 758.21 455.952 756.394 455.178C754.593 454.403 753.03 453.324 751.705 451.94C750.395 450.541 749.375 448.918 748.646 447.072C747.931 445.211 747.574 443.202 747.574 441.043Z" fill="white"/>
<path d="M389.959 14.43C389.959 19.2347 382.76 19.2347 382.76 14.43C382.76 9.61917 389.959 9.61917 389.959 14.43Z" fill="white"/>
<path d="M18.1981 354.824H754.865V358.007H18.1981V354.824Z" fill="white"/>
<path d="M129.591 1.71613C119.647 1.71613 111.59 9.78961 111.59 19.7528L111.591 353.519H110.514V19.7745C110.514 9.20754 119.052 0.646722 129.591 0.646722L643.442 0.640625C653.975 0.640625 662.525 9.2016 662.525 19.7684V37.7102H661.448V19.7528C661.448 9.78914 653.391 1.71613 643.441 1.71613H129.591Z" fill="white"/>
<path fill-rule="evenodd" clip-rule="evenodd" d="M660.384 37.7102V19.7481C660.36 10.3764 652.808 2.8041 643.455 2.79161L643.449 2.80097H129.599C120.258 2.81926 112.693 10.3862 112.682 19.7637V353.508H660.384V327.614H639.484V341.624H133.563V23.6603H639.484V37.7102H660.384ZM426.059 12.7337H418.623V16.1239H426.059V12.7337ZM365.036 9.13011C363.052 9.13011 361.44 10.746 361.44 12.7398V16.1239C361.44 18.1177 363.052 19.7336 365.036 19.7336H406.105C408.095 19.7336 409.702 18.1177 409.702 16.1239V12.7398C409.702 10.746 408.095 9.13011 406.105 9.13011H365.036ZM351.836 12.7337H344.4V16.1239H351.836V12.7337Z" fill="white"/>
<path d="M661.448 327.614H662.525V353.513H661.448V327.614Z" fill="white"/>
<path d="M47.4852 394.191C26.6804 394.191 18.3912 382.941 18.3912 382.941H755.058C755.058 382.941 746.782 394.191 725.97 394.191H47.4852Z" fill="white"/>
<path d="M18.1981 359.335V381.61H754.865V359.335H18.1981ZM55.8353 375.444C53.4681 375.444 51.5451 373.517 51.5451 371.145C51.5451 368.774 53.4681 366.847 55.8353 366.847C58.1963 366.847 60.1254 368.774 60.1254 371.145C60.1254 373.517 58.2024 375.444 55.8353 375.444ZM70.8415 375.444C68.4744 375.444 66.5514 373.517 66.5514 371.145C66.5514 368.774 68.4744 366.847 70.8415 366.847C73.2026 366.847 75.1256 368.774 75.1256 371.145C75.1256 373.517 73.2026 375.444 70.8415 375.444ZM85.8417 375.444C83.4746 375.444 81.5516 373.517 81.5516 371.145C81.5516 368.774 83.4746 366.847 85.8417 366.847C88.2028 366.847 90.1318 368.774 90.1318 371.145C90.1318 373.517 88.2088 375.444 85.8417 375.444ZM719.832 370.981C719.832 371.993 718.865 372.822 717.672 372.822H493.375C492.177 372.822 491.215 371.993 491.215 370.981V369.609C491.215 368.591 492.183 367.767 493.375 367.767H717.672C718.865 367.767 719.832 368.591 719.832 369.609V370.981Z" fill="white"/>
<path d="M299.651 248.542H285.891L268.69 110.939V248.542H258.37V62.7782H272.13L289.331 200.381V62.7782H299.651V248.542Z" fill="white"/>
<path d="M372.305 231.341C372.305 232.201 372.198 233.778 371.983 236.071C371.768 238.293 371.015 240.586 369.725 242.951C368.435 245.316 366.392 247.395 363.597 249.187C360.802 251.05 356.825 251.982 351.665 251.982C346.505 251.982 342.527 251.05 339.732 249.187C336.937 247.395 334.894 245.316 333.604 242.951C332.314 240.586 331.562 238.293 331.347 236.071C331.132 233.778 331.024 232.201 331.024 231.341V79.9785C331.024 79.4052 331.06 78.5451 331.132 77.3985C331.204 76.2518 331.419 74.9976 331.777 73.6359C332.135 72.2025 332.744 70.7692 333.604 69.3358C334.464 67.8308 335.647 66.4691 337.152 65.2507C338.657 64.0324 340.592 63.0649 342.957 62.3482C345.322 61.5598 348.225 61.1657 351.665 61.1657C355.105 61.1657 358.007 61.5598 360.372 62.3482C362.737 63.0649 364.672 64.0324 366.177 65.2507C367.682 66.4691 368.865 67.8308 369.725 69.3358C370.585 70.7692 371.194 72.2025 371.553 73.6359C371.911 74.9976 372.126 76.2518 372.198 77.3985C372.269 78.5451 372.305 79.4052 372.305 79.9785V231.341ZM344.785 231.341C344.785 232.201 344.82 233.24 344.892 234.459C344.964 235.605 345.215 236.716 345.645 237.791C346.075 238.866 346.755 239.798 347.687 240.586C348.619 241.303 349.945 241.661 351.665 241.661C353.385 241.661 354.711 241.303 355.642 240.586C356.574 239.798 357.255 238.866 357.685 237.791C358.115 236.716 358.366 235.605 358.437 234.459C358.509 233.24 358.545 232.201 358.545 231.341V79.9785C358.545 79.1185 358.509 78.1868 358.437 77.1835C358.366 76.1801 358.115 75.2843 357.685 74.4959C357.255 73.6359 356.574 72.9192 355.642 72.3459C354.711 71.7725 353.385 71.4859 351.665 71.4859C349.945 71.4859 348.619 71.7725 347.687 72.3459C346.755 72.9192 346.075 73.6359 345.645 74.4959C345.215 75.2843 344.964 76.1801 344.892 77.1835C344.82 78.1868 344.785 79.1185 344.785 79.9785V231.341Z" fill="white"/>
<path d="M444.959 248.542H431.199L413.999 110.939V248.542H403.678V62.7782H417.439L434.639 200.381V62.7782H444.959V248.542Z" fill="white"/>
<path d="M514.173 248.542H500.413L498.693 203.821H488.48L486.653 248.542H472.892L483.213 62.7782H503.853L514.173 248.542ZM493.533 69.6583L490.093 152.22L488.48 193.501H498.693L493.533 69.6583Z" fill="white"/>
<path d="M579.947 62.7782H593.707L597.148 248.542H583.387V121.259L573.067 238.221H566.187L555.867 121.259V248.542H542.107L545.547 62.7782H559.307L569.627 190.06L579.947 62.7782Z" fill="white"/>
<path d="M659.481 73.0984H642.281V145.34H656.041V155.66H642.281V238.221H659.481V248.542H628.521V62.7782H659.481V73.0984Z" fill="white"/>
<path d="M262.324 274.576H251.311V268.54H280.111V274.576H269.099V310.921H262.324V274.576Z" fill="white"/>
<path d="M292.956 268.54H318.642V274.576H299.666V286.745H318.321V292.62H299.666V304.885H318.642V310.921H292.956V268.54Z" fill="white"/>
<path d="M355.072 305.014C357.512 305.014 359.642 304.682 361.461 304.018C363.302 303.333 364.64 302.659 365.475 301.996L368.364 307.775C367.401 308.631 365.721 309.498 363.323 310.376C360.926 311.253 358.058 311.692 354.719 311.692C351.594 311.692 348.682 311.135 345.985 310.022C343.288 308.909 340.923 307.368 338.89 305.399C336.856 303.408 335.272 301.086 334.138 298.432C333.003 295.777 332.436 292.898 332.436 289.795C332.436 286.691 333.003 283.801 334.138 281.126C335.272 278.45 336.846 276.117 338.858 274.126C340.891 272.136 343.256 270.584 345.953 269.471C348.672 268.336 351.594 267.769 354.719 267.769C358.058 267.769 360.926 268.208 363.323 269.086C365.721 269.963 367.401 270.83 368.364 271.686L365.475 277.466C364.64 276.802 363.302 276.138 361.461 275.475C359.642 274.79 357.512 274.448 355.072 274.448C352.76 274.448 350.662 274.833 348.779 275.603C346.895 276.374 345.279 277.455 343.931 278.846C342.582 280.238 341.544 281.864 340.816 283.726C340.088 285.567 339.725 287.558 339.725 289.698C339.725 291.86 340.088 293.872 340.816 295.735C341.544 297.597 342.582 299.224 343.931 300.615C345.279 302.006 346.895 303.087 348.779 303.858C350.662 304.628 352.76 305.014 355.072 305.014Z" fill="white"/>
<path d="M388.126 274.865L388.575 274.929V310.921H381.833V268.54H391.24L411.725 304.5L411.307 304.596V268.54H418.018V310.921H408.578L388.126 274.865Z" fill="white"/>
<path d="M438.494 289.698C438.494 292.609 439.104 295.253 440.325 297.629C441.545 299.983 443.225 301.856 445.365 303.248C447.506 304.618 449.967 305.303 452.75 305.303C455.576 305.303 458.048 304.618 460.167 303.248C462.307 301.856 463.977 299.983 465.176 297.629C466.396 295.253 467.006 292.609 467.006 289.698C467.006 286.787 466.396 284.155 465.176 281.8C463.977 279.446 462.307 277.583 460.167 276.213C458.048 274.843 455.576 274.159 452.75 274.159C449.967 274.159 447.506 274.843 445.365 276.213C443.225 277.583 441.545 279.446 440.325 281.8C439.104 284.155 438.494 286.787 438.494 289.698ZM431.463 289.698C431.463 286.616 431.998 283.748 433.068 281.094C434.16 278.418 435.658 276.085 437.563 274.094C439.49 272.104 441.748 270.552 444.338 269.439C446.928 268.326 449.732 267.769 452.75 267.769C455.811 267.769 458.626 268.326 461.194 269.439C463.784 270.552 466.042 272.104 467.969 274.094C469.895 276.085 471.383 278.418 472.432 281.094C473.481 283.748 474.005 286.616 474.005 289.698C474.005 292.802 473.481 295.692 472.432 298.367C471.404 301.022 469.938 303.355 468.033 305.367C466.128 307.357 463.881 308.909 461.291 310.022C458.701 311.135 455.854 311.692 452.75 311.692C449.625 311.692 446.757 311.135 444.145 310.022C441.555 308.909 439.308 307.357 437.403 305.367C435.519 303.355 434.053 301.022 433.004 298.367C431.977 295.692 431.463 292.802 431.463 289.698Z" fill="white"/>
<path d="M487.266 268.54H494.041V304.885H510.319V310.921H487.266V268.54Z" fill="white"/>
<path d="M528.5 289.698C528.5 292.609 529.11 295.253 530.33 297.629C531.55 299.983 533.231 301.856 535.371 303.248C537.512 304.618 539.973 305.303 542.756 305.303C545.581 305.303 548.053 304.618 550.172 303.248C552.313 301.856 553.983 299.983 555.181 297.629C556.401 295.253 557.011 292.609 557.011 289.698C557.011 286.787 556.401 284.155 555.181 281.8C553.983 279.446 552.313 277.583 550.172 276.213C548.053 274.843 545.581 274.159 542.756 274.159C539.973 274.159 537.512 274.843 535.371 276.213C533.231 277.583 531.55 279.446 530.33 281.8C529.11 284.155 528.5 286.787 528.5 289.698ZM521.469 289.698C521.469 286.616 522.004 283.748 523.074 281.094C524.166 278.418 525.664 276.085 527.569 274.094C529.495 272.104 531.754 270.552 534.344 269.439C536.934 268.326 539.738 267.769 542.756 267.769C545.817 267.769 548.631 268.326 551.2 269.439C553.79 270.552 556.048 272.104 557.975 274.094C559.901 276.085 561.389 278.418 562.437 281.094C563.486 283.748 564.011 286.616 564.011 289.698C564.011 292.802 563.486 295.692 562.437 298.367C561.41 301.022 559.944 303.355 558.039 305.367C556.134 307.357 553.886 308.909 551.296 310.022C548.706 311.135 545.859 311.692 542.756 311.692C539.631 311.692 536.762 311.135 534.151 310.022C531.561 308.909 529.313 307.357 527.408 305.367C525.525 303.355 524.059 301.022 523.01 298.367C521.982 295.692 521.469 292.802 521.469 289.698Z" fill="white"/>
<path d="M596.119 287.708H617.567V290.116C617.567 293.112 617.053 295.917 616.025 298.528C614.998 301.118 613.542 303.408 611.659 305.399C609.797 307.368 607.592 308.909 605.045 310.022C602.498 311.135 599.683 311.692 596.601 311.692C593.475 311.692 590.607 311.125 587.996 309.99C585.406 308.834 583.158 307.25 581.253 305.238C579.37 303.226 577.903 300.893 576.855 298.239C575.827 295.585 575.313 292.738 575.313 289.698C575.313 286.68 575.827 283.844 576.855 281.19C577.903 278.536 579.37 276.203 581.253 274.191C583.158 272.179 585.406 270.605 587.996 269.471C590.607 268.336 593.475 267.769 596.601 267.769C598.891 267.769 600.946 268.026 602.765 268.54C604.606 269.032 606.243 269.706 607.678 270.562C609.112 271.419 610.364 272.393 611.434 273.484C612.504 274.555 613.414 275.657 614.163 276.791L607.934 279.938C606.779 278.29 605.27 276.92 603.407 275.828C601.545 274.715 599.276 274.159 596.601 274.159C594.524 274.159 592.609 274.565 590.853 275.379C589.12 276.192 587.611 277.316 586.326 278.75C585.063 280.184 584.079 281.843 583.372 283.726C582.687 285.589 582.345 287.579 582.345 289.698C582.345 291.818 582.687 293.819 583.372 295.702C584.079 297.586 585.063 299.245 586.326 300.679C587.611 302.113 589.12 303.248 590.853 304.082C592.609 304.896 594.524 305.303 596.601 305.303C598.548 305.303 600.314 304.992 601.898 304.371C603.504 303.729 604.895 302.852 606.072 301.739C607.249 300.626 608.181 299.331 608.865 297.854C609.55 296.355 609.946 294.75 610.053 293.038H596.119V287.708Z" fill="white"/>
<path d="M641.463 295.67L627.079 268.54H635.266L644.834 287.868L654.37 268.54H662.525L648.205 295.67V310.921H641.463V295.67Z" fill="white"/>
<path d="M11.983 426.328H16.7838L27.9037 455.803H22.902L20.4681 449.059H8.32107L5.86487 455.803H0.84082L11.983 426.328ZM9.83945 444.884H18.9497L14.4169 432.045H14.3499L9.83945 444.884Z" fill="white"/>
<path d="M40.4963 425.792C42.223 425.792 43.7191 425.993 44.9844 426.395C46.2646 426.782 47.2769 427.199 48.0212 427.646C48.7655 428.077 49.212 428.36 49.3609 428.494L47.0163 432.313C46.7931 432.119 46.3911 431.851 45.8106 431.509C45.2449 431.151 44.5453 430.831 43.7116 430.549C42.8929 430.266 41.9774 430.124 40.9652 430.124C39.4468 430.124 38.241 430.422 37.3478 431.017C36.4547 431.598 36.0081 432.447 36.0081 433.563C36.0081 434.307 36.2463 434.962 36.7226 435.528C37.199 436.094 37.8763 436.622 38.7546 437.113C39.6477 437.605 40.7121 438.103 41.9476 438.609C42.9897 439.041 44.0019 439.532 44.9844 440.083C45.9818 440.634 46.8749 441.281 47.6639 442.026C48.4529 442.77 49.0781 443.633 49.5395 444.616C50.0159 445.598 50.2541 446.73 50.2541 448.01C50.2541 449.35 49.9787 450.541 49.4279 451.583C48.8771 452.61 48.1179 453.481 47.1503 454.195C46.1827 454.895 45.0663 455.431 43.801 455.803C42.5505 456.16 41.2108 456.339 39.7817 456.339C37.9061 456.339 36.2165 456.115 34.713 455.669C33.2244 455.207 32.0186 454.731 31.0957 454.24C30.1728 453.734 29.6369 453.406 29.488 453.257L31.9665 449.26C32.1452 449.409 32.4727 449.632 32.949 449.93C33.4403 450.213 34.0431 450.518 34.7577 450.846C35.4722 451.158 36.2612 451.426 37.1246 451.65C38.0028 451.858 38.9109 451.962 39.8487 451.962C41.6499 451.962 43.012 451.575 43.9349 450.801C44.8579 450.012 45.3193 449 45.3193 447.764C45.3193 446.826 45.0216 446.015 44.4262 445.33C43.8456 444.631 43.0418 443.998 42.0146 443.432C41.0024 442.867 39.8487 442.309 38.5536 441.758C37.2288 441.177 36.0007 440.522 34.8693 439.793C33.7529 439.063 32.8523 438.178 32.1675 437.136C31.4827 436.079 31.1404 434.799 31.1404 433.295C31.1404 431.792 31.5646 430.482 32.4131 429.365C33.2765 428.234 34.4153 427.355 35.8295 426.73C37.2436 426.105 38.7992 425.792 40.4963 425.792Z" fill="white"/>
<path d="M64.5262 425.792C66.253 425.792 67.749 425.993 69.0143 426.395C70.2945 426.782 71.3068 427.199 72.0511 427.646C72.7954 428.077 73.242 428.36 73.3908 428.494L71.0463 432.313C70.823 432.119 70.4211 431.851 69.8405 431.509C69.2748 431.151 68.5752 430.831 67.7416 430.549C66.9229 430.266 66.0074 430.124 64.9951 430.124C63.4767 430.124 62.271 430.422 61.3778 431.017C60.4846 431.598 60.038 432.447 60.038 433.563C60.038 434.307 60.2762 434.962 60.7526 435.528C61.2289 436.094 61.9062 436.622 62.7845 437.113C63.6777 437.605 64.742 438.103 65.9776 438.609C67.0196 439.041 68.0319 439.532 69.0143 440.083C70.0117 440.634 70.9049 441.281 71.6938 442.026C72.4828 442.77 73.108 443.633 73.5695 444.616C74.0458 445.598 74.284 446.73 74.284 448.01C74.284 449.35 74.0086 450.541 73.4578 451.583C72.9071 452.61 72.1479 453.481 71.1803 454.195C70.2127 454.895 69.0962 455.431 67.8309 455.803C66.5805 456.16 65.2407 456.339 63.8117 456.339C61.936 456.339 60.2465 456.115 58.743 455.669C57.2544 455.207 56.0486 454.731 55.1256 454.24C54.2027 453.734 53.6668 453.406 53.5179 453.257L55.9965 449.26C56.1751 449.409 56.5026 449.632 56.979 449.93C57.4702 450.213 58.0731 450.518 58.7876 450.846C59.5021 451.158 60.2911 451.426 61.1545 451.65C62.0328 451.858 62.9408 451.962 63.8787 451.962C65.6799 451.962 67.0419 451.575 67.9649 450.801C68.8878 450.012 69.3493 449 69.3493 447.764C69.3493 446.826 69.0516 446.015 68.4561 445.33C67.8756 444.631 67.0717 443.998 66.0446 443.432C65.0323 442.867 63.8787 442.309 62.5836 441.758C61.2587 441.177 60.0306 440.522 58.8993 439.793C57.7828 439.063 56.8822 438.178 56.1974 437.136C55.5127 436.079 55.1703 434.799 55.1703 433.295C55.1703 431.792 55.5946 430.482 56.4431 429.365C57.3064 428.234 58.4452 427.355 59.8594 426.73C61.2736 426.105 62.8292 425.792 64.5262 425.792Z" fill="white"/>
<path d="M79.2002 426.328H83.8894V455.803H79.2002V426.328Z" fill="white"/>
<path d="M99.5026 425.792C101.229 425.792 102.725 425.993 103.991 426.395C105.271 426.782 106.283 427.199 107.028 427.646C107.772 428.077 108.218 428.36 108.367 428.494L106.023 432.313C105.799 432.119 105.398 431.851 104.817 431.509C104.251 431.151 103.552 430.831 102.718 430.549C101.899 430.266 100.984 430.124 99.9715 430.124C98.4532 430.124 97.2474 430.422 96.3542 431.017C95.4611 431.598 95.0145 432.447 95.0145 433.563C95.0145 434.307 95.2527 434.962 95.729 435.528C96.2054 436.094 96.8827 436.622 97.761 437.113C98.6541 437.605 99.7185 438.103 100.954 438.609C101.996 439.041 103.008 439.532 103.991 440.083C104.988 440.634 105.881 441.281 106.67 442.026C107.459 442.77 108.084 443.633 108.546 444.616C109.022 445.598 109.26 446.73 109.26 448.01C109.26 449.35 108.985 450.541 108.434 451.583C107.883 452.61 107.124 453.481 106.157 454.195C105.189 454.895 104.073 455.431 102.807 455.803C101.557 456.16 100.217 456.339 98.7881 456.339C96.9125 456.339 95.2229 456.115 93.7194 455.669C92.2308 455.207 91.025 454.731 90.1021 454.24C89.1791 453.734 88.6432 453.406 88.4944 453.257L90.9729 449.26C91.1516 449.409 91.479 449.632 91.9554 449.93C92.4466 450.213 93.0495 450.518 93.7641 450.846C94.4786 451.158 95.2675 451.426 96.1309 451.65C97.0092 451.858 97.9173 451.962 98.8551 451.962C100.656 451.962 102.018 451.575 102.941 450.801C103.864 450.012 104.326 449 104.326 447.764C104.326 446.826 104.028 446.015 103.433 445.33C102.852 444.631 102.048 443.998 101.021 443.432C100.009 442.867 98.8551 442.309 97.56 441.758C96.2351 441.177 95.007 440.522 93.8757 439.793C92.7592 439.063 91.8586 438.178 91.1739 437.136C90.4891 436.079 90.1467 434.799 90.1467 433.295C90.1467 431.792 90.571 430.482 91.4195 429.365C92.2829 428.234 93.4217 427.355 94.8358 426.73C96.25 426.105 97.8056 425.792 99.5026 425.792Z" fill="white"/>
<path d="M119.759 430.526H112.1V426.328H132.129V430.526H124.47V455.803H119.759V430.526Z" fill="white"/>
<path d="M136.15 426.328H154.013V430.526H140.816V438.989H153.79V443.075H140.816V451.605H154.013V455.803H136.15V426.328ZM139.7 424.497L137.78 421.952L144.836 416.794L151.892 421.952L149.971 424.52L144.836 420.768L139.7 424.497Z" fill="white"/>
<path d="M164.12 430.727L164.432 430.772V455.803H159.743V426.328H166.286L180.532 451.337L180.242 451.404V426.328H184.908V455.803H178.344L164.12 430.727Z" fill="white"/>
<path d="M205.356 451.694C207.053 451.694 208.535 451.463 209.8 451.002C211.08 450.526 212.011 450.057 212.591 449.595L214.601 453.615C213.931 454.21 212.762 454.813 211.095 455.423C209.428 456.034 207.433 456.339 205.111 456.339C202.938 456.339 200.913 455.952 199.037 455.178C197.162 454.403 195.517 453.332 194.103 451.962C192.688 450.578 191.587 448.963 190.798 447.117C190.009 445.271 189.614 443.269 189.614 441.11C189.614 438.952 190.009 436.942 190.798 435.081C191.587 433.221 192.681 431.598 194.08 430.214C195.494 428.829 197.139 427.75 199.015 426.976C200.906 426.187 202.938 425.792 205.111 425.792C207.433 425.792 209.428 426.098 211.095 426.708C212.762 427.318 213.931 427.921 214.601 428.517L212.591 432.536C212.011 432.074 211.08 431.613 209.8 431.151C208.535 430.675 207.053 430.437 205.356 430.437C203.749 430.437 202.29 430.705 200.98 431.241C199.67 431.777 198.546 432.528 197.608 433.496C196.67 434.464 195.949 435.595 195.442 436.89C194.936 438.17 194.683 439.555 194.683 441.043C194.683 442.547 194.936 443.946 195.442 445.241C195.949 446.536 196.67 447.668 197.608 448.635C198.546 449.603 199.67 450.354 200.98 450.89C202.29 451.426 203.749 451.694 205.356 451.694Z" fill="white"/>
<path d="M219.368 426.328H224.057V455.803H219.368V426.328Z" fill="white"/>
<path d="M239.112 426.328H243.913L255.032 455.803H250.031L247.597 449.059H235.45L232.994 455.803H227.97L239.112 426.328ZM236.968 444.884H246.078L241.546 432.045H241.479L236.968 444.884Z" fill="white"/>
<path d="M275.19 430.526H267.532V426.328H287.561V430.526H279.902V455.803H275.19V430.526Z" fill="white"/>
<path d="M291.581 426.328H309.444V430.526H296.248V438.989H309.221V443.075H296.248V451.605H309.444V455.803H291.581V426.328ZM298.458 425.078L296.873 422.957L303.84 417.151L306.341 420.322L298.458 425.078Z" fill="white"/>
<path d="M329.867 451.694C331.564 451.694 333.046 451.463 334.311 451.002C335.591 450.526 336.521 450.057 337.102 449.595L339.112 453.615C338.442 454.21 337.273 454.813 335.606 455.423C333.939 456.034 331.944 456.339 329.622 456.339C327.448 456.339 325.424 455.952 323.548 455.178C321.673 454.403 320.028 453.332 318.613 451.962C317.199 450.578 316.098 448.963 315.309 447.117C314.52 445.271 314.125 443.269 314.125 441.11C314.125 438.952 314.52 436.942 315.309 435.081C316.098 433.221 317.192 431.598 318.591 430.214C320.005 428.829 321.65 427.75 323.526 426.976C325.416 426.187 327.448 425.792 329.622 425.792C331.944 425.792 333.939 426.098 335.606 426.708C337.273 427.318 338.442 427.921 339.112 428.517L337.102 432.536C336.521 432.074 335.591 431.613 334.311 431.151C333.046 430.675 331.564 430.437 329.867 430.437C328.26 430.437 326.801 430.705 325.491 431.241C324.181 431.777 323.057 432.528 322.119 433.496C321.181 434.464 320.459 435.595 319.953 436.89C319.447 438.17 319.194 439.555 319.194 441.043C319.194 442.547 319.447 443.946 319.953 445.241C320.459 446.536 321.181 447.668 322.119 448.635C323.057 449.603 324.181 450.354 325.491 450.89C326.801 451.426 328.26 451.694 329.867 451.694Z" fill="white"/>
<path d="M347.942 430.727L348.255 430.772V455.803H343.566V426.328H350.108L364.354 451.337L364.064 451.404V426.328H368.731V455.803H362.166L347.942 430.727Z" fill="white"/>
<path d="M374.799 426.328H379.488V455.803H374.799V426.328Z" fill="white"/>
<path d="M400.126 451.694C401.823 451.694 403.304 451.463 404.569 451.002C405.849 450.526 406.78 450.057 407.36 449.595L409.37 453.615C408.7 454.21 407.531 454.813 405.864 455.423C404.197 456.034 402.202 456.339 399.88 456.339C397.707 456.339 395.682 455.952 393.806 455.178C391.931 454.403 390.286 453.332 388.872 451.962C387.457 450.578 386.356 448.963 385.567 447.117C384.778 445.271 384.384 443.269 384.384 441.11C384.384 438.952 384.778 436.942 385.567 435.081C386.356 433.221 387.45 431.598 388.849 430.214C390.263 428.829 391.908 427.75 393.784 426.976C395.675 426.187 397.707 425.792 399.88 425.792C402.202 425.792 404.197 426.098 405.864 426.708C407.531 427.318 408.7 427.921 409.37 428.517L407.36 432.536C406.78 432.074 405.849 431.613 404.569 431.151C403.304 430.675 401.823 430.437 400.126 430.437C398.518 430.437 397.059 430.705 395.749 431.241C394.439 431.777 393.315 432.528 392.377 433.496C391.44 434.464 390.718 435.595 390.211 436.89C389.705 438.17 389.452 439.555 389.452 441.043C389.452 442.547 389.705 443.946 390.211 445.241C390.718 446.536 391.44 447.668 392.377 448.635C393.315 449.603 394.439 450.354 395.749 450.89C397.059 451.426 398.518 451.694 400.126 451.694Z" fill="white"/>
<path d="M422.934 426.328H427.735L438.855 455.803H433.853L431.419 449.059H419.272L416.816 455.803H411.792L422.934 426.328ZM420.791 444.884H429.901L425.368 432.045H425.301L420.791 444.884Z" fill="white"/>
<path d="M452.024 448.256C452.024 447.08 452.24 446.045 452.671 445.152C453.118 444.244 453.691 443.462 454.391 442.807C455.09 442.137 455.82 441.579 456.579 441.133C457.353 440.671 458.068 440.314 458.723 440.061C459.378 439.793 459.884 439.607 460.241 439.503C459.958 439.309 459.608 438.996 459.192 438.565C458.775 438.133 458.365 437.612 457.963 437.002C457.562 436.376 457.227 435.692 456.959 434.947C456.691 434.203 456.557 433.429 456.557 432.625C456.557 431.375 456.899 430.236 457.584 429.209C458.269 428.182 459.236 427.355 460.487 426.73C461.752 426.105 463.255 425.792 464.997 425.792C466.709 425.792 468.153 426.098 469.329 426.708C470.52 427.303 471.42 428.122 472.031 429.164C472.641 430.191 472.946 431.367 472.946 432.692C472.946 433.823 472.693 434.828 472.187 435.707C471.696 436.57 471.086 437.322 470.356 437.962C469.627 438.587 468.905 439.108 468.19 439.525C467.476 439.942 466.903 440.254 466.471 440.463L472.142 446.603C472.5 446.261 472.998 445.71 473.638 444.951C474.279 444.177 474.926 443.276 475.581 442.249L478.73 445.018C478.521 445.375 478.216 445.837 477.814 446.402C477.412 446.953 476.973 447.511 476.497 448.077C476.02 448.628 475.574 449.089 475.157 449.461L481.163 455.803H475.202L471.674 452.029C470.899 452.729 470.006 453.414 468.994 454.083C467.982 454.738 466.828 455.282 465.533 455.713C464.253 456.13 462.816 456.339 461.224 456.339C459.527 456.339 457.978 456.019 456.579 455.379C455.18 454.724 454.071 453.793 453.252 452.587C452.433 451.382 452.024 449.938 452.024 448.256ZM462.608 442.361C462.385 442.435 462.057 442.569 461.625 442.763C461.209 442.941 460.747 443.179 460.241 443.477C459.735 443.76 459.259 444.117 458.812 444.549C458.365 444.966 457.993 445.45 457.695 446C457.398 446.551 457.249 447.176 457.249 447.876C457.249 448.784 457.465 449.543 457.896 450.154C458.328 450.764 458.901 451.218 459.616 451.516C460.345 451.813 461.134 451.962 461.983 451.962C462.906 451.962 463.799 451.798 464.662 451.471C465.54 451.143 466.329 450.749 467.029 450.287C467.744 449.811 468.309 449.35 468.726 448.903L462.608 442.361ZM464.93 429.477C464.126 429.477 463.442 429.633 462.876 429.946C462.31 430.258 461.878 430.66 461.581 431.151C461.283 431.643 461.134 432.149 461.134 432.67C461.134 433.221 461.268 433.786 461.536 434.367C461.819 434.947 462.139 435.491 462.496 435.997C462.868 436.503 463.203 436.927 463.501 437.27C463.814 437.597 463.992 437.783 464.037 437.828C464.305 437.753 464.692 437.59 465.198 437.337C465.704 437.084 466.218 436.749 466.739 436.332C467.275 435.9 467.729 435.387 468.101 434.791C468.488 434.181 468.681 433.474 468.681 432.67C468.681 431.762 468.339 431.003 467.654 430.392C466.97 429.782 466.061 429.477 464.93 429.477Z" fill="white"/>
<path d="M522.902 426.328V455.803H518.213V435.729L518.436 431.955L517.543 436.198L511.09 453.927H506.467L500.037 436.198L499.144 431.955L499.367 435.729V455.803H494.678V426.328H501.086L508.455 448.389L508.79 450.154L509.102 448.389L516.516 426.328H522.902Z" fill="white"/>
<path d="M537.982 426.328H542.782L553.902 455.803H548.9L546.467 449.059H534.32L531.863 455.803H526.839L537.982 426.328ZM535.838 444.884H544.948L540.415 432.045H540.348L535.838 444.884Z" fill="white"/>
<path d="M561.203 430.727L561.515 430.772V455.803H556.826V426.328H563.369L577.615 451.337L577.324 451.404V426.328H581.991V455.803H575.426L561.203 430.727Z" fill="white"/>
<path d="M605.744 426.328H610.433V444.571C610.433 446.998 609.949 449.097 608.982 450.868C608.029 452.625 606.697 453.979 604.985 454.932C603.273 455.87 601.278 456.339 599.001 456.339C596.738 456.339 594.743 455.87 593.016 454.932C591.29 453.979 589.943 452.625 588.975 450.868C588.007 449.097 587.523 446.998 587.523 444.571V426.328H592.213V444.326C592.213 445.933 592.503 447.31 593.083 448.456C593.679 449.603 594.483 450.481 595.495 451.091C596.522 451.702 597.691 452.007 599.001 452.007C600.311 452.007 601.472 451.702 602.484 451.091C603.496 450.481 604.293 449.603 604.873 448.456C605.454 447.31 605.744 445.933 605.744 444.326V426.328Z" fill="white"/>
<path d="M621.64 430.526H613.981V426.328H634.011V430.526H626.352V455.803H621.64V430.526Z" fill="white"/>
<path d="M638.031 426.328H655.894V430.526H642.698V438.989H655.671V443.075H642.698V451.605H655.894V455.803H638.031V426.328Z" fill="white"/>
<path d="M666.001 430.727L666.314 430.772V455.803H661.625V426.328H668.167L682.413 451.337L682.123 451.404V426.328H686.79V455.803H680.225L666.001 430.727Z" fill="white"/>
<path d="M707.238 451.694C708.935 451.694 710.416 451.463 711.681 451.002C712.961 450.526 713.892 450.057 714.472 449.595L716.482 453.615C715.812 454.21 714.644 454.813 712.976 455.423C711.309 456.034 709.314 456.339 706.992 456.339C704.819 456.339 702.794 455.952 700.919 455.178C699.043 454.403 697.398 453.332 695.984 451.962C694.57 450.578 693.468 448.963 692.679 447.117C691.89 445.271 691.496 443.269 691.496 441.11C691.496 438.952 691.89 436.942 692.679 435.081C693.468 433.221 694.562 431.598 695.962 430.214C697.376 428.829 699.021 427.75 700.896 426.976C702.787 426.187 704.819 425.792 706.992 425.792C709.314 425.792 711.309 426.098 712.976 426.708C714.644 427.318 715.812 427.921 716.482 428.517L714.472 432.536C713.892 432.074 712.961 431.613 711.681 431.151C710.416 430.675 708.935 430.437 707.238 430.437C705.63 430.437 704.171 430.705 702.861 431.241C701.551 431.777 700.427 432.528 699.49 433.496C698.552 434.464 697.83 435.595 697.324 436.89C696.818 438.17 696.565 439.555 696.565 441.043C696.565 442.547 696.818 443.946 697.324 445.241C697.83 446.536 698.552 447.668 699.49 448.635C700.427 449.603 701.551 450.354 702.861 450.89C704.171 451.426 705.63 451.694 707.238 451.694ZM707.104 465.36C705.913 465.36 704.871 465.174 703.978 464.801C703.099 464.444 702.467 464.094 702.08 463.752L703.844 461.72C704.127 461.988 704.536 462.256 705.072 462.524C705.608 462.807 706.173 462.948 706.769 462.948C707.424 462.948 707.967 462.799 708.399 462.501C708.831 462.204 709.046 461.809 709.046 461.318C709.046 460.767 708.846 460.358 708.444 460.09C708.042 459.837 707.536 459.71 706.925 459.71C706.464 459.71 706.054 459.74 705.697 459.8C705.355 459.874 705.109 459.949 704.96 460.023L704.402 459.666L706.121 454.865L708.042 455.602L707.082 458.192C707.841 458.073 708.607 458.103 709.381 458.281C710.155 458.46 710.803 458.787 711.324 459.264C711.86 459.755 712.128 460.41 712.128 461.229C712.128 462.107 711.882 462.851 711.391 463.462C710.915 464.087 710.289 464.556 709.515 464.868C708.756 465.196 707.952 465.36 707.104 465.36Z" fill="white"/>
<path d="M730.047 426.328H734.847L745.967 455.803H740.966L738.532 449.059H726.385L723.928 455.803H718.904L730.047 426.328ZM727.903 444.884H737.013L732.481 432.045H732.414L727.903 444.884ZM724.777 424.296C724.911 423.552 725.164 422.793 725.536 422.019C725.923 421.23 726.422 420.56 727.032 420.009C727.643 419.458 728.372 419.183 729.221 419.183C730.129 419.183 730.91 419.324 731.565 419.607C732.22 419.89 732.83 420.173 733.396 420.456C733.977 420.724 734.602 420.858 735.272 420.858C735.763 420.858 736.157 420.672 736.455 420.299C736.753 419.912 736.954 419.54 737.058 419.183H740.117C739.968 419.912 739.7 420.672 739.313 421.461C738.926 422.25 738.42 422.919 737.795 423.47C737.185 424.021 736.463 424.296 735.629 424.296C734.706 424.296 733.91 424.155 733.24 423.872C732.585 423.589 731.974 423.314 731.409 423.046C730.858 422.763 730.27 422.622 729.645 422.622C729.183 422.622 728.789 422.815 728.461 423.202C728.149 423.574 727.94 423.939 727.836 424.296H724.777Z" fill="white"/>
<path d="M752.464 441.043C752.464 443.068 752.888 444.906 753.737 446.559C754.585 448.196 755.754 449.499 757.242 450.466C758.731 451.419 760.443 451.895 762.378 451.895C764.343 451.895 766.062 451.419 767.536 450.466C769.025 449.499 770.186 448.196 771.019 446.559C771.868 444.906 772.292 443.068 772.292 441.043C772.292 439.019 771.868 437.188 771.019 435.55C770.186 433.913 769.025 432.618 767.536 431.665C766.062 430.712 764.343 430.236 762.378 430.236C760.443 430.236 758.731 430.712 757.242 431.665C755.754 432.618 754.585 433.913 753.737 435.55C752.888 437.188 752.464 439.019 752.464 441.043ZM747.574 441.043C747.574 438.9 747.946 436.905 748.69 435.059C749.45 433.198 750.492 431.576 751.816 430.191C753.156 428.807 754.727 427.728 756.528 426.954C758.329 426.18 760.279 425.792 762.378 425.792C764.507 425.792 766.464 426.18 768.251 426.954C770.052 427.728 771.622 428.807 772.962 430.191C774.302 431.576 775.336 433.198 776.066 435.059C776.795 436.905 777.16 438.9 777.16 441.043C777.16 443.202 776.795 445.211 776.066 447.072C775.351 448.918 774.332 450.541 773.007 451.94C771.682 453.324 770.119 454.403 768.318 455.178C766.516 455.952 764.537 456.339 762.378 456.339C760.205 456.339 758.21 455.952 756.394 455.178C754.593 454.403 753.03 453.324 751.705 451.94C750.395 450.541 749.375 448.918 748.646 447.072C747.931 445.211 747.574 443.202 747.574 441.043Z" fill="white"/>
</svg>
