<svg width="64" height="66" viewBox="0 0 64 66" fill="none" xmlns="http://www.w3.org/2000/svg">
<path d="M62.9887 24.0028C60.0586 12.7707 51.024 3.73617 39.6698 0.92814C28.3156 -1.87989 15.9847 1.78276 8.17101 10.5731C-1.47398 21.3169 -2.69486 37.4326 5.1188 49.6414C4.50835 54.0366 4.02 58.4318 3.40956 62.827C3.16538 64.4141 5.1188 65.5129 6.46177 65.1466C10.7349 63.9258 15.13 62.827 19.4031 61.6061C31.0015 66.3675 44.4313 64.1699 53.71 55.6237C62.3783 47.688 65.9188 35.235 62.9887 24.0028ZM54.4425 47.5659C47.1172 58.3097 32.7108 62.3386 20.8682 56.9667C20.8682 56.9667 20.8682 56.9667 20.7461 56.9667C20.2578 56.7225 19.6473 56.6004 18.9148 56.7225C15.4963 57.6992 12.0778 58.5539 8.65936 59.5306C9.02562 56.6004 9.39189 53.7924 9.75815 50.8623C9.88024 49.8856 10.1244 48.7868 9.63607 47.8101C9.2698 47.1996 8.78145 46.5892 8.41518 45.8567C7.56056 44.3916 6.82803 42.8045 6.21759 41.2173C4.26418 35.6012 4.14209 29.3747 5.97341 23.7587C9.14771 13.8695 18.1823 6.42212 28.4377 5.20123C39.0594 3.73617 49.6811 8.86388 55.175 17.7763C60.7911 26.933 60.4248 38.6535 54.4425 47.5659Z" fill="white"/>
<path d="M48.9485 36.0896L43.4546 31.8165C41.7453 30.4735 39.4256 30.7177 37.9606 32.1828L36.3734 33.7699C35.1525 33.0374 34.0537 32.1828 32.955 31.2061C31.9782 30.2294 31.1236 29.0085 30.3911 27.7876L31.9782 26.2004C33.4433 24.7354 33.5654 22.4157 32.3445 20.7065L28.0714 15.0904C27.2168 13.8695 25.8738 13.137 24.4088 13.137C22.9437 13.0149 21.4786 13.6253 20.5019 14.602L15.7405 19.3635C13.0545 22.0494 12.4441 26.2004 14.1533 29.6189C16.473 34.0141 19.4031 37.9209 22.8216 41.3394C26.2401 44.7579 30.269 47.688 34.5421 50.0077C35.8851 50.7402 37.228 50.9844 38.571 50.9844C40.7686 50.9844 43.0883 50.1298 44.6754 48.4205L49.4369 43.6591C50.4136 42.6824 51.024 41.2173 50.9019 39.7523C50.9019 38.2872 50.1694 36.9442 48.9485 36.0896ZM46.0184 40.2406L41.257 45.0021C40.0361 46.2229 38.2048 46.4671 36.7397 45.7346C32.8329 43.6591 29.2923 41.0952 26.118 37.9209C22.9437 34.7466 20.3798 31.2061 18.3043 27.2992C17.5718 25.8342 17.816 24.0029 19.0369 22.782L23.7983 18.0205C23.7983 18.0205 23.7983 18.0205 23.9204 18.0205C24.0425 18.0205 24.0425 18.0205 24.0425 18.1426L27.9493 23.2703L26.3622 24.7354C25.1413 25.9563 24.775 27.9097 25.6296 29.4968C26.6064 31.4502 27.9493 33.1595 29.4144 34.6245C30.8794 36.0896 32.5887 37.4326 34.5421 38.4093C36.1292 39.2639 37.9606 38.8976 39.1815 37.6768L40.8907 35.9675L45.8963 39.8743C45.8963 39.8743 46.0184 39.8743 46.0184 39.9964C46.0184 40.1185 46.0184 40.2406 46.0184 40.2406Z" fill="white"/>
</svg>
