<svg width="64" height="64" viewBox="0 0 64 64" fill="none" xmlns="http://www.w3.org/2000/svg">
<path d="M48.19 0H15.811C11.619 0.00449994 7.60007 1.67174 4.6359 4.6359C1.67174 7.60007 0.00449994 11.619 0 15.811V48.189C0.00449994 52.381 1.67174 56.3999 4.6359 59.3641C7.60007 62.3283 11.619 63.9955 15.811 64H48.19C52.3819 63.9955 56.4007 62.3282 59.3647 59.364C62.3287 56.3998 63.9958 52.3809 64 48.189V15.811C63.9958 11.6191 62.3287 7.60016 59.3647 4.63597C56.4007 1.67177 52.3819 0.0045004 48.19 0ZM57.925 48.189C57.9221 50.7702 56.8956 53.2448 55.0706 55.0702C53.2456 56.8955 50.7712 57.9226 48.19 57.926H15.811C13.2297 57.9228 10.755 56.8959 8.92976 55.0705C7.10457 53.2452 6.07791 50.7703 6.075 48.189V15.811C6.07791 13.2297 7.10457 10.7549 8.92976 8.92947C10.755 7.10409 13.2297 6.07718 15.811 6.074H48.19C50.7712 6.07744 53.2456 7.10447 55.0706 8.92982C56.8956 10.7552 57.9221 13.2298 57.925 15.811V48.189Z" fill="white"/>
<path d="M32 16.76C28.9858 16.7602 26.0394 17.6542 23.5334 19.3289C21.0273 21.0036 19.0741 23.3838 17.9208 26.1686C16.7675 28.9534 16.4658 32.0176 17.0539 34.9738C17.6421 37.93 19.0936 40.6454 21.225 42.7767C23.3564 44.9079 26.0719 46.3593 29.0282 46.9472C31.9844 47.5352 35.0486 47.2333 37.8333 46.0798C40.618 44.9263 42.9981 42.973 44.6727 40.4668C46.3472 37.9606 47.241 35.0141 47.241 32C47.2365 27.9593 45.6293 24.0854 42.772 21.2283C39.9147 18.3712 36.0407 16.7642 32 16.76ZM32 41.166C30.1872 41.1658 28.4151 40.6281 26.9079 39.6208C25.4007 38.6135 24.226 37.1819 23.5324 35.507C22.8388 33.8321 22.6575 31.9892 23.0112 30.2112C23.365 28.4332 24.2381 26.8001 25.52 25.5183C26.8019 24.2365 28.4352 23.3636 30.2132 23.01C31.9912 22.6565 33.8341 22.838 35.5089 23.5318C37.1837 24.2256 38.6152 25.4004 39.6223 26.9077C40.6294 28.4151 41.167 30.1872 41.167 32C41.1646 34.4304 40.198 36.7606 38.4793 38.4791C36.7607 40.1975 34.4304 41.1639 32 41.166Z" fill="white"/>
<path d="M47.865 12.068C47.0604 12.0678 46.2738 12.3062 45.6047 12.7531C44.9355 13.2 44.414 13.8352 44.1059 14.5786C43.7979 15.3219 43.7172 16.1398 43.874 16.929C44.0309 17.7182 44.4182 18.4431 44.9871 19.0122C45.556 19.5812 46.2809 19.9687 47.07 20.1258C47.8591 20.2828 48.6771 20.2023 49.4205 19.8944C50.1639 19.5866 50.7993 19.0652 51.2463 18.3962C51.6934 17.7272 51.932 16.9406 51.932 16.136C51.932 15.0573 51.5035 14.0227 50.7409 13.2598C49.9782 12.497 48.9437 12.0683 47.865 12.068Z" fill="white"/>
</svg>
