<svg width="64" height="43" viewBox="0 0 64 43" fill="none" xmlns="http://www.w3.org/2000/svg">
<path d="M57.6 0H6.4C2.88 0 0 2.88 0 6.4V36.2667C0 39.7867 2.88 42.6667 6.4 42.6667H57.6C61.12 42.6667 64 39.7867 64 36.2667V6.4C64 2.88 61.12 0 57.6 0ZM37.7813 23.2107C34.688 26.304 29.312 26.304 26.24 23.2107L7.27467 4.26667H56.704L37.76 23.2107H37.7813ZM18.3253 21.3333L4.26667 35.392V7.296L18.3253 21.3547V21.3333ZM21.3333 24.3413L23.2107 26.2187C25.5573 28.5653 28.672 29.8667 32 29.8667C35.328 29.8667 38.4427 28.5653 40.7893 26.2187L42.6667 24.3413L56.7253 38.4H7.27467L21.3333 24.3413ZM45.6747 21.3333L59.7333 7.27467V35.3707L45.6747 21.312V21.3333Z" fill="white"/>
</svg>
